<?xml version="1.0" encoding="utf-8"?>
<svg width="224" height="224" xmlns="http://www.w3.org/2000/svg">
  <path style="fill:#16335d; stroke:none;" d="M139 44L140 45L139 44M137 45L138 46L137 45z"/>
  <path style="fill:#3daeff; stroke:none;" d="M45 99L45 100C58.4544 100 79.5007 96.0083 92 101.075C103.36 105.68 114.416 113.795 125 120.011C128.973 122.344 134.24 126.888 139 127.108C143.706 127.326 149.092 122.507 153 120.281C164.102 113.955 177.208 108.198 187 100L164 87L187 72C176.473 65.5558 165.616 59.6877 155 53.3966C150.822 50.9209 144.988 45.9444 140 45.6929C131.873 45.2832 118.855 56.3342 112 60.3966C89.8275 73.5359 67.198 85.9091 45 99z"/>
  <path style="fill:#16335d; stroke:none;" d="M141 45L142 46L141 45M135 46L136 47L135 46z"/>
  <path style="fill:#3b6bfe; stroke:none;" d="M136 46L137 47L136 46z"/>
  <path style="fill:#16335d; stroke:none;" d="M143 46L144 47L143 46z"/>
  <path style="fill:#2552a1; stroke:none;" d="M134 47L135 48L134 47z"/>
  <path style="fill:#3b6bfe; stroke:none;" d="M144 47L145 48L144 47z"/>
  <path style="fill:#2552a1; stroke:none;" d="M132 48L133 49L132 48M146 48L147 49L146 48z"/>
  <path style="fill:#16335d; stroke:none;" d="M130 49L131 50L130 49M148 49L149 50L148 49M128 50L129 51L128 50z"/>
  <path style="fill:#3b6bfe; stroke:none;" d="M129 50L130 51L129 50z"/>
  <path style="fill:#16335d; stroke:none;" d="M150 50L151 51L150 50z"/>
  <path style="fill:#2552a1; stroke:none;" d="M127 51L128 52L127 51M151 51L152 52L151 51z"/>
  <path style="fill:#16335d; stroke:none;" d="M125 52L126 53L125 52z"/>
  <path style="fill:#2552a1; stroke:none;" d="M153 52L154 53L153 52z"/>
  <path style="fill:#16335d; stroke:none;" d="M123 53L124 54L123 53M155 53L156 54L155 53z"/>
  <path style="fill:#3b6bfe; stroke:none;" d="M122 54L123 55L122 54M156 54L157 55L156 54z"/>
  <path style="fill:#16335d; stroke:none;" d="M157 54L158 55L157 54z"/>
  <path style="fill:#2552a1; stroke:none;" d="M120 55L121 56L120 55M158 55L159 56L158 55z"/>
  <path style="fill:#16335d; stroke:none;" d="M118 56L119 57L118 56M160 56L161 57L160 56M116 57L117 58L116 57M162 57L163 58L162 57z"/>
  <path style="fill:#2552a1; stroke:none;" d="M115 58L116 59L115 58z"/>
  <path style="fill:#3b6bfe; stroke:none;" d="M163 58L164 59L163 58z"/>
  <path style="fill:#2552a1; stroke:none;" d="M113 59L114 60L113 59M165 59L166 60L165 59z"/>
  <path style="fill:#16335d; stroke:none;" d="M111 60L112 61L111 60M167 60L168 61L167 60M109 61L110 62L109 61z"/>
  <path style="fill:#3b6bfe; stroke:none;" d="M110 61L111 62L110 61z"/>
  <path style="fill:#16335d; stroke:none;" d="M169 61L170 62L169 61z"/>
  <path style="fill:#2552a1; stroke:none;" d="M108 62L109 63L108 62z"/>
  <path style="fill:#3b6bfe; stroke:none;" d="M170 62L171 63L170 62z"/>
  <path style="fill:#16335d; stroke:none;" d="M106 63L107 64L106 63z"/>
  <path style="fill:#2552a1; stroke:none;" d="M172 63L173 64L172 63z"/>
  <path style="fill:#16335d; stroke:none;" d="M104 64L105 65L104 64M174 64L175 65L174 64z"/>
  <path style="fill:#3b6bfe; stroke:none;" d="M103 65L104 66L103 65z"/>
  <path style="fill:#16335d; stroke:none;" d="M176 65L177 66L176 65z"/>
  <path style="fill:#2552a1; stroke:none;" d="M101 66L102 67L101 66M177 66L178 67L177 66z"/>
  <path style="fill:#16335d; stroke:none;" d="M99 67L100 68L99 67z"/>
  <path style="fill:#2552a1; stroke:none;" d="M179 67L180 68L179 67z"/>
  <path style="fill:#16335d; stroke:none;" d="M97 68L98 69L97 68M181 68L182 69L181 68z"/>
  <path style="fill:#2552a1; stroke:none;" d="M96 69L97 70L96 69z"/>
  <path style="fill:#3b6bfe; stroke:none;" d="M182 69L183 70L182 69z"/>
  <path style="fill:#16335d; stroke:none;" d="M183 69L184 70L183 69z"/>
  <path style="fill:#2552a1; stroke:none;" d="M94 70L95 71L94 70M184 70L185 71L184 70z"/>
  <path style="fill:#16335d; stroke:none;" d="M92 71L93 72L92 71M186 71L187 72L186 71M90 72L91 73L90 72z"/>
  <path style="fill:#3b6bfe; stroke:none;" d="M91 72L92 73L91 72z"/>
  <path style="fill:#16335d; stroke:none;" d="M187 72L188 73L187 72z"/>
  <path style="fill:#2552a1; stroke:none;" d="M89 73L90 74L89 73z"/>
  <path style="fill:#3b6bfe; stroke:none;" d="M 117 85 L 117 87 L 129 91.972 L 139.576 87.514 L 150 92.087 L 162 87 L 162 85 L 140 73.607 L 117 85 M 164 87 C 167.427 88.602 171.503 96.022 175 94.451 C 193.515 86.134 189.575 81.384 187 73 C 179.378 75.775 169.281 80.793 164 87 Z"/>
  <path style="fill:#16335d; stroke:none;" d="M87 74L88 75L87 74M85 75L86 76L85 75M83 76L84 77L83 76z"/>
  <path style="fill:#3b6bfe; stroke:none;" d="M84 76L85 77L84 76z"/>
  <path style="fill:#2552a1; stroke:none;" d="M82 77L83 78L82 77z"/>
  <path style="fill:#16335d; stroke:none;" d="M80 78L81 79L80 78M78 79L79 80L78 79z"/>
  <path style="fill:#3b6bfe; stroke:none;" d="M77 80L78 81L77 80z"/>
  <path style="fill:#2552a1; stroke:none;" d="M75 81L76 82L75 81z"/>
  <path style="fill:#16335d; stroke:none;" d="M73 82L74 83L73 82M71 83L72 84L71 83z"/>
  <path style="fill:#2552a1; stroke:none;" d="M70 84L71 85L70 84M68 85L69 86L68 85z"/>
  <path style="fill:#16335d; stroke:none;" d="M66 86L67 87L66 86z"/>
  <path style="fill:#2552a1; stroke:none;" d="M139 86L140 87L139 86z"/>
  <path style="fill:#16335d; stroke:none;" d="M187 86L188 87L187 86M64 87L65 88L64 87z"/>
  <path style="fill:#3b6bfe; stroke:none;" d="M65 87L66 88L65 87z"/>
  <path style="fill:#2552a1; stroke:none;" d="M137 87L138 88L137 87z"/>
  <path style="fill:#2552a1; stroke:none;" d="M185 87L186 88L185 87M63 88L64 89L63 88z"/>
  <path style="fill:#16335d; stroke:none;" d="M184 88L185 89L184 88M61 89L62 90L61 89z"/>
  <path style="fill:#2552a1; stroke:none;" d="M134 89L135 90L134 89M144 89L145 90L144 89z"/>
  <path style="fill:#16335d; stroke:none;" d="M182 89L183 90L182 89M59 90L60 91L59 90z"/>
  <path style="fill:#2552a1; stroke:none;" d="M132 90L133 91L132 90z"/>
  <path style="fill:#16335d; stroke:none;" d="M133 90L134 91L133 90M145 90L146 91L145 90z"/>
  <path style="fill:#2552a1; stroke:none;" d="M146 90L147 91L146 90M180 90L181 91L180 90z"/>
  <path style="fill:#3b6bfe; stroke:none;" d="M58 91L59 92L58 91z"/>
  <path style="fill:#2552a1; stroke:none;" d="M130 91L131 92L130 91z"/>
  <path style="fill:#16335d; stroke:none;" d="M131 91L132 92L131 91M147 91L148 92L147 91M179 91L180 92L179 91z"/>
  <path style="fill:#2552a1; stroke:none;" d="M56 92L57 93L56 92z"/>
  <path style="fill:#2552a1; stroke:none;" d="M128 93L129 94L128 93M150 93L151 94L150 93M176 93L177 94L176 93z"/>
  <path style="fill:#16335d; stroke:none;" d="M52 94L53 95L52 94z"/>
  <path style="fill:#2552a1; stroke:none;" d="M130 94L131 95L130 94z"/>
  <path style="fill:#16335d; stroke:none;" d="M131 94L133 96L131 94M148 94L149 95L148 94M178 94L179 95L178 94z"/>
  <path style="fill:#3b6bfe; stroke:none;" d="M51 95L52 96L51 95M131 95L132 96L131 95z"/>
  <path style="fill:#16335d; stroke:none;" d="M146 95L147 96L146 95z"/>
  <path style="fill:#3b6bfe; stroke:none;" d="M147 95L148 96L147 95M179 95L180 96L179 95z"/>
  <path style="fill:#2552a1; stroke:none;" d="M49 96L50 97L49 96z"/>
  <path style="fill:#3b6bfe; stroke:none;" d="M133 96L134 97L133 96z"/>
  <path style="fill:#16335d; stroke:none;" d="M134 96L135 97L134 96M144 96L145 97L144 96z"/>
  <path style="fill:#2552a1; stroke:none;" d="M145 96L146 97L145 96M181 96L182 97L181 96z"/>
  <path style="fill:#16335d; stroke:none;" d="M47 97L48 98L47 97z"/>
  <path style="fill:#2552a1; stroke:none;" d="M135 97L136 98L135 97z"/>
  <path style="fill:#16335d; stroke:none;" d="M136 97L137 98L136 97M142 97L143 98L142 97z"/>
  <path style="fill:#2552a1; stroke:none;" d="M143 97L144 98L143 97z"/>
  <path style="fill:#16335d; stroke:none;" d="M183 97L184 98L183 97M45 98L46 99L45 98z"/>
  <path style="fill:#2552a1; stroke:none;" d="M137 98L138 99L137 98z"/>
  <path style="fill:#16335d; stroke:none;" d="M138 98L140 100L138 98M141 98L142 99L141 98z"/>
  <path style="fill:#3b6bfe; stroke:none;" d="M184 98L185 99L184 98z"/>
  <path style="fill:#16335d; stroke:none;" d="M185 98L186 99L185 98z"/>
  <path style="fill:#2552a1; stroke:none;" d="M44 99L43 114L44 114L44 99z"/>
  <path style="fill:#3b6bfe; stroke:none;" d="M138 99L139 100L138 99M140 99L141 100L140 99z"/>
  <path style="fill:#2552a1; stroke:none;" d="M186 99L187 100L186 99z"/>
  <path style="fill:#3b6bfe; stroke:none;" d="M 44 100 L 44 114 C 57.958 114 78.907 110.078 92 114.994 C 103.429 119.285 114.387 127.792 125 133.85 C 129.007 136.137 134.293 140.603 139 140.958 C 143.102 141.267 147.74 137.727 151 135.579 C 170.749 122.567 187.861 117.567 185.972 114.39 C 183.938 110.969 187 104.815 187 101 C 175.111 104.497 163.76 113.598 153 119.719 C 149.206 121.878 144.428 126.044 140 126.508 C 135.276 127.002 129.844 122.268 126 120.011 C 115.416 113.795 104.36 105.68 93 101.075 C 80.014 95.811 57.986 100 44 100 Z"/>
  <path style="fill:#2552a1; stroke:none;" d="M 187 100 L 187 114 L 186.913 114 L 187 100 Z"/>
  <path style="fill:#16335d; stroke:none;" d="M44 114L45 115L44 114M91 114L92 115L91 114M187 114L188 115L187 114M93 115L94 116L93 115z"/>
  <path style="fill:#2552a1; stroke:none;" d="M185 115L186 116L185 115M95 116L96 117L95 116M183 116L184 117L183 116z"/>
  <path style="fill:#16335d; stroke:none;" d="M96 117L97 118L96 117M182 117L183 118L182 117M98 118L99 119L98 118M180 118L181 119L180 118z"/>
  <path style="fill:#2552a1; stroke:none;" d="M100 119L101 120L100 119M178 119L179 120L178 119z"/>
  <path style="fill:#16335d; stroke:none;" d="M101 120L102 121L101 120M177 120L178 121L177 120M103 121L104 122L103 121M175 121L176 122L175 121M104 122L105 123L104 122z"/>
  <path style="fill:#2552a1; stroke:none;" d="M105 122L106 123L105 122M173 122L174 123L173 122z"/>
  <path style="fill:#16335d; stroke:none;" d="M174 122L175 123L174 122M106 123L107 124L106 123z"/>
  <path style="fill:#2552a1; stroke:none;" d="M107 123L108 124L107 123M171 123L172 124L171 123z"/>
  <path style="fill:#16335d; stroke:none;" d="M172 123L173 124L172 123M108 124L109 125L108 124M170 124L171 125L170 124z"/>
  <path style="fill:#2552a1; stroke:none;" d="M110 125L111 126L110 125M168 125L169 126L168 125z"/>
  <path style="fill:#16335d; stroke:none;" d="M169 125L170 126L169 125M111 126L112 127L111 126z"/>
  <path style="fill:#2552a1; stroke:none;" d="M112 126L113 127L112 126M166 126L167 127L166 126z"/>
  <path style="fill:#16335d; stroke:none;" d="M167 126L168 127L167 126M113 127L114 128L113 127M165 127L166 128L165 127M115 128L116 129L115 128M163 128L164 129L163 128z"/>
  <path style="fill:#2552a1; stroke:none;" d="M117 129L118 130L117 129M161 129L162 130L161 129z"/>
  <path style="fill:#16335d; stroke:none;" d="M162 129L163 130L162 129M118 130L119 131L118 130z"/>
  <path style="fill:#2552a1; stroke:none;" d="M119 130L120 131L119 130M159 130L160 131L159 130z"/>
  <path style="fill:#16335d; stroke:none;" d="M160 130L161 131L160 130M120 131L121 132L120 131M158 131L159 132L158 131M122 132L123 133L122 132z"/>
  <path style="fill:#2552a1; stroke:none;" d="M156 132L157 133L156 132z"/>
  <path style="fill:#16335d; stroke:none;" d="M123 133L124 134L123 133z"/>
  <path style="fill:#2552a1; stroke:none;" d="M124 133L125 134L124 133M154 133L155 134L154 133z"/>
  <path style="fill:#16335d; stroke:none;" d="M155 133L156 134L155 133M125 134L126 135L125 134z"/>
  <path style="fill:#2552a1; stroke:none;" d="M126 134L127 135L126 134M152 134L153 135L152 134z"/>
  <path style="fill:#16335d; stroke:none;" d="M153 134L154 135L153 134M127 135L128 136L127 135M151 135L152 136L151 135M129 136L130 137L129 136M149 136L150 137L149 136M131 137L132 138L131 137z"/>
  <path style="fill:#2552a1; stroke:none;" d="M147 137L148 138L147 137M133 138L134 139L133 138M145 138L146 139L145 138z"/>
  <path style="fill:#16335d; stroke:none;" d="M144 139L145 140L144 139M136 140L137 141L136 140M142 140L143 141L142 140M138 141L139 142L138 141M140 141L141 142L140 141z"/>
</svg>